<mxfile host="Electron" modified="2024-05-28T06:56:32.225Z" agent="Mozilla/5.0 (Macintosh; Intel Mac OS X 10_15_7) AppleWebKit/537.36 (KHTML, like Gecko) draw.io/24.4.8 Chrome/124.0.6367.207 Electron/30.0.6 Safari/537.36" etag="XS5XYYdI9xz7yhjCEtGr" version="24.4.8" type="device">
  <diagram name="第 1 页" id="DzBpV4kH0GB_TMj4DBRm">
    <mxGraphModel dx="1727" dy="674" grid="1" gridSize="10" guides="1" tooltips="1" connect="1" arrows="1" fold="1" page="1" pageScale="1" pageWidth="827" pageHeight="1169" math="0" shadow="0">
      <root>
        <mxCell id="0" />
        <mxCell id="1" parent="0" />
        <mxCell id="eY-xhFCUERMVkehMitpd-1" value="评论" style="ellipse;whiteSpace=wrap;html=1;dashed=1;dashPattern=1 1;" vertex="1" parent="1">
          <mxGeometry x="-230" y="750" width="120" height="80" as="geometry" />
        </mxCell>
        <mxCell id="eY-xhFCUERMVkehMitpd-2" value="点赞" style="ellipse;whiteSpace=wrap;html=1;dashed=1;dashPattern=1 1;" vertex="1" parent="1">
          <mxGeometry x="-230" y="860" width="120" height="80" as="geometry" />
        </mxCell>
        <mxCell id="eY-xhFCUERMVkehMitpd-3" value="评论动态" style="endArrow=classic;html=1;entryX=0;entryY=0.5;entryDx=0;entryDy=0;strokeColor=#0000FF;" edge="1" parent="1">
          <mxGeometry width="50" height="50" relative="1" as="geometry">
            <mxPoint x="-110" y="790" as="sourcePoint" />
            <mxPoint x="60" y="790" as="targetPoint" />
          </mxGeometry>
        </mxCell>
        <mxCell id="eY-xhFCUERMVkehMitpd-4" value="点赞动态" style="endArrow=classic;html=1;entryX=0;entryY=0.5;entryDx=0;entryDy=0;strokeColor=#0000FF;" edge="1" parent="1">
          <mxGeometry width="50" height="50" relative="1" as="geometry">
            <mxPoint x="-110" y="900" as="sourcePoint" />
            <mxPoint x="60" y="900" as="targetPoint" />
          </mxGeometry>
        </mxCell>
        <mxCell id="eY-xhFCUERMVkehMitpd-5" value="&lt;span&gt;评论数据&lt;br&gt;（DB）&lt;br&gt;【按动态id分表】&lt;br&gt;&lt;/span&gt;" style="rounded=0;whiteSpace=wrap;html=1;dashed=1;" vertex="1" parent="1">
          <mxGeometry x="60" y="760" width="120" height="60" as="geometry" />
        </mxCell>
        <mxCell id="eY-xhFCUERMVkehMitpd-6" value="&lt;span&gt;点赞数据&lt;br&gt;（DB）&lt;br&gt;【按点赞用户id分表】&lt;br&gt;&lt;/span&gt;" style="rounded=0;whiteSpace=wrap;html=1;dashed=1;" vertex="1" parent="1">
          <mxGeometry x="60" y="870" width="120" height="60" as="geometry" />
        </mxCell>
        <mxCell id="eY-xhFCUERMVkehMitpd-7" value="消息数据&lt;br&gt;（DB）" style="rounded=0;whiteSpace=wrap;html=1;dashed=1;" vertex="1" parent="1">
          <mxGeometry x="60" y="980" width="120" height="60" as="geometry" />
        </mxCell>
        <mxCell id="eY-xhFCUERMVkehMitpd-8" value="写入消息" style="endArrow=classic;html=1;exitX=1;exitY=0.5;exitDx=0;exitDy=0;entryX=1;entryY=0.5;entryDx=0;entryDy=0;edgeStyle=orthogonalEdgeStyle;strokeColor=#0000FF;" edge="1" parent="1" source="eY-xhFCUERMVkehMitpd-5" target="eY-xhFCUERMVkehMitpd-7">
          <mxGeometry width="50" height="50" relative="1" as="geometry">
            <mxPoint x="290" y="840" as="sourcePoint" />
            <mxPoint x="340" y="790" as="targetPoint" />
            <Array as="points">
              <mxPoint x="250" y="790" />
              <mxPoint x="250" y="1010" />
            </Array>
          </mxGeometry>
        </mxCell>
        <mxCell id="eY-xhFCUERMVkehMitpd-9" value="写入消息" style="endArrow=classic;html=1;entryX=1;entryY=0.25;entryDx=0;entryDy=0;exitX=1;exitY=0.5;exitDx=0;exitDy=0;edgeStyle=orthogonalEdgeStyle;strokeColor=#0000FF;" edge="1" parent="1" source="eY-xhFCUERMVkehMitpd-6" target="eY-xhFCUERMVkehMitpd-7">
          <mxGeometry width="50" height="50" relative="1" as="geometry">
            <mxPoint x="190" y="880" as="sourcePoint" />
            <mxPoint x="240" y="830" as="targetPoint" />
            <Array as="points">
              <mxPoint x="210" y="900" />
              <mxPoint x="210" y="995" />
            </Array>
          </mxGeometry>
        </mxCell>
        <mxCell id="eY-xhFCUERMVkehMitpd-10" value="获取消息列表" style="ellipse;whiteSpace=wrap;html=1;dashed=1;dashPattern=1 1;" vertex="1" parent="1">
          <mxGeometry x="-230" y="970" width="120" height="80" as="geometry" />
        </mxCell>
        <mxCell id="eY-xhFCUERMVkehMitpd-11" value="" style="endArrow=classic;html=1;entryX=0;entryY=0.5;entryDx=0;entryDy=0;exitX=1;exitY=0.5;exitDx=0;exitDy=0;strokeColor=#00CC00;" edge="1" parent="1" source="eY-xhFCUERMVkehMitpd-10" target="eY-xhFCUERMVkehMitpd-7">
          <mxGeometry width="50" height="50" relative="1" as="geometry">
            <mxPoint x="-100" y="1020" as="sourcePoint" />
            <mxPoint x="-50" y="970" as="targetPoint" />
          </mxGeometry>
        </mxCell>
        <mxCell id="eY-xhFCUERMVkehMitpd-12" value="消息读取时间&lt;br&gt;（DB）" style="rounded=0;whiteSpace=wrap;html=1;dashed=1;" vertex="1" parent="1">
          <mxGeometry x="60" y="1090" width="120" height="60" as="geometry" />
        </mxCell>
        <mxCell id="eY-xhFCUERMVkehMitpd-13" value="写入读取时间" style="endArrow=classic;html=1;entryX=0.5;entryY=0;entryDx=0;entryDy=0;exitX=0.5;exitY=1;exitDx=0;exitDy=0;strokeColor=#00CC00;" edge="1" parent="1" source="eY-xhFCUERMVkehMitpd-7" target="eY-xhFCUERMVkehMitpd-12">
          <mxGeometry width="50" height="50" relative="1" as="geometry">
            <mxPoint x="120" y="1070" as="sourcePoint" />
            <mxPoint x="170" y="1030" as="targetPoint" />
          </mxGeometry>
        </mxCell>
        <mxCell id="eY-xhFCUERMVkehMitpd-14" value="是否有新消息" style="ellipse;whiteSpace=wrap;html=1;dashed=1;dashPattern=1 1;" vertex="1" parent="1">
          <mxGeometry x="-230" y="1080" width="120" height="80" as="geometry" />
        </mxCell>
        <mxCell id="eY-xhFCUERMVkehMitpd-15" value="1、获取最后读取时间" style="endArrow=classic;html=1;entryX=0;entryY=0.5;entryDx=0;entryDy=0;exitX=1;exitY=0.5;exitDx=0;exitDy=0;strokeColor=#999999;" edge="1" parent="1" source="eY-xhFCUERMVkehMitpd-14" target="eY-xhFCUERMVkehMitpd-12">
          <mxGeometry width="50" height="50" relative="1" as="geometry">
            <mxPoint x="-110" y="1130" as="sourcePoint" />
            <mxPoint x="-60" y="1080" as="targetPoint" />
          </mxGeometry>
        </mxCell>
        <mxCell id="eY-xhFCUERMVkehMitpd-16" value="2、根据读取查询" style="endArrow=classic;html=1;strokeColor=#999999;entryX=0;entryY=0.75;entryDx=0;entryDy=0;edgeStyle=orthogonalEdgeStyle;" edge="1" parent="1" target="eY-xhFCUERMVkehMitpd-7">
          <mxGeometry width="50" height="50" relative="1" as="geometry">
            <mxPoint x="-120" y="1100" as="sourcePoint" />
            <mxPoint x="-70" y="1050" as="targetPoint" />
          </mxGeometry>
        </mxCell>
        <mxCell id="eY-xhFCUERMVkehMitpd-17" value="&lt;font color=&quot;#ff0000&quot;&gt;定时清理数据（只保留7天内）&lt;/font&gt;" style="text;html=1;strokeColor=none;fillColor=none;align=center;verticalAlign=middle;whiteSpace=wrap;rounded=0;" vertex="1" parent="1">
          <mxGeometry x="100" y="1020" width="190" height="30" as="geometry" />
        </mxCell>
      </root>
    </mxGraphModel>
  </diagram>
</mxfile>
